<?xml version="1.0" encoding="utf-8"?>
<!-- Generator: Adobe Illustrator 16.0.0, SVG Export Plug-In . SVG Version: 6.00 Build 0)  -->
<!DOCTYPE svg PUBLIC "-//W3C//DTD SVG 1.1//EN" "http://www.w3.org/Graphics/SVG/1.1/DTD/svg11.dtd">
<svg version="1.1" id="Layer_1" xmlns="http://www.w3.org/2000/svg" xmlns:xlink="http://www.w3.org/1999/xlink" x="0px" y="0px"
	 width="176.79px" height="176.79px" viewBox="0 0 176.79 176.79" enable-background="new 0 0 176.79 176.79" xml:space="preserve">
<path fill="#EF7057" d="M43.075,70.839c5.691-0.813,11.169-3.693,16.874-4.074c6.478-0.432,11.365,1.824,17.117,4.379
	c4.002,1.777,8.637,3.657,13.084,2.348c4.785-1.409,8.912-4.811,11.666-8.949c2.352-3.533,3.057-7.191,4.369-11.121
	c1.447-4.331,7.611-4.741,11.471-4.248c4.27,0.545,8.002,2.904,12.236,3.461c3.8,0.5,7.273-0.953,10.232-3.28
	c4.367-3.437,5.479-6.497,7.113-11.634c0.548-1.724,1.223-3.174,2.022-4.461c26.272,28.781,28.27,73.531,2.897,105.42
	c-28.095,35.312-79.101,41.479-113.925,13.773C9.07,129.249,0.519,89.651,15.006,56.65C22.104,65.615,31.097,72.549,43.075,70.839z"
	/>
<path fill="#EF7057" d="M131.51,46.774c-4.026-0.172-7.86-2.615-11.84-3.34c-4.411-0.802-9.662-0.455-13.704,1.637
	c-7.139,3.694-5.343,12.578-10.544,17.932c-5.369,5.525-9.814,5.55-16.445,2.443c-4.724-2.213-9.475-4.499-14.781-4.723
	c-10.44-0.441-20.848,7.279-31.094,3.22c-6.311-2.5-11.151-7.673-15.162-13.28c2.3-4.263,4.984-8.393,8.108-12.318
	C54.143,3.032,105.149-3.134,139.974,24.573c1.685,1.341,3.278,2.751,4.825,4.195c-1.666,2.576-2.771,5.439-3.697,8.506
	C139.841,41.448,136.756,46.999,131.51,46.774z"/>
<path fill="#C95E49" d="M33.102,66.943c10.246,4.06,20.653-3.661,31.094-3.22c5.307,0.224,10.058,2.51,14.781,4.723
	c6.631,3.106,11.076,3.082,16.445-2.443c5.201-5.354,3.405-14.237,10.544-17.932c4.042-2.092,9.293-2.438,13.704-1.637
	c3.979,0.725,7.813,3.168,11.84,3.34c5.246,0.225,8.331-5.326,9.592-9.5c0.926-3.066,2.031-5.93,3.697-8.506
	c1.553,1.451,3.049,2.942,4.462,4.49c-0.8,1.287-1.475,2.737-2.022,4.461c-1.635,5.137-2.746,8.197-7.113,11.634
	c-2.959,2.327-6.433,3.78-10.232,3.28c-4.234-0.557-7.967-2.916-12.236-3.461c-3.859-0.493-10.023-0.083-11.471,4.248
	c-1.312,3.93-2.018,7.588-4.369,11.121c-2.754,4.139-6.881,7.54-11.666,8.949c-4.447,1.31-9.082-0.57-13.084-2.348
	c-5.752-2.555-10.64-4.811-17.117-4.379c-5.705,0.381-11.183,3.261-16.874,4.074c-11.979,1.71-20.971-5.224-28.069-14.188
	c0.888-2.024,1.871-4.019,2.934-5.987C21.95,59.271,26.791,64.443,33.102,66.943z"/>
<path fill="#FFFFFF" d="M33.102,63.943c10.246,4.06,20.653-3.661,31.094-3.22c5.307,0.224,10.058,2.51,14.781,4.723
	c6.631,3.106,11.076,3.082,16.445-2.443c5.201-5.354,3.405-14.237,10.544-17.932c4.042-2.092,9.293-2.438,13.704-1.637
	c3.979,0.725,7.813,3.168,11.84,3.34c5.246,0.225,8.331-5.326,9.592-9.5c0.926-3.066,2.031-5.93,3.697-8.506
	c1.553,1.451,3.049,2.942,4.462,4.49c-0.8,1.287-1.475,2.737-2.022,4.461c-1.635,5.137-2.746,8.197-7.113,11.634
	c-2.959,2.327-6.433,3.78-10.232,3.28c-4.234-0.557-7.967-2.916-12.236-3.461c-3.859-0.493-10.023-0.083-11.471,4.248
	c-1.312,3.93-2.018,7.588-4.369,11.121c-2.754,4.139-6.881,7.54-11.666,8.949c-4.447,1.31-9.082-0.57-13.084-2.348
	c-5.752-2.555-10.64-4.811-17.117-4.379c-5.705,0.381-11.183,3.261-16.874,4.074c-11.979,1.71-20.971-5.224-28.069-14.188
	c0.888-2.024,1.871-4.019,2.934-5.987C21.95,56.271,26.791,61.443,33.102,63.943z"/>
<ellipse transform="matrix(-0.7825 -0.6226 0.6226 -0.7825 103.723 213.2512)" fill="none" stroke="#C95E49" stroke-width="4" stroke-miterlimit="10" cx="89.103" cy="88.512" rx="80.577" ry="81.707"/>
<path fill="none" stroke="#A34C3B" stroke-width="1.5" stroke-miterlimit="10" d="M101.662,139.739
	c0.329,2.32-1.482,5.62-4.236,6.011c-2.756,0.391-5.412-2.276-5.741-4.597"/>
<ellipse transform="matrix(-0.9889 0.1488 -0.1488 -0.9889 260.0905 191.7077)" fill="#A34C3B" cx="122.872" cy="105.586" rx="6" ry="9.429"/>
<ellipse transform="matrix(-0.9889 0.1488 -0.1488 -0.9889 143.9385 216.4005)" fill="#A34C3B" cx="63.872" cy="113.586" rx="6" ry="9.429"/>
<circle fill="#FF856E" cx="55.876" cy="129.124" r="4"/>
<circle fill="#FF856E" cx="134.876" cy="118.124" r="4"/>
</svg>
